<?xml version="1.0" encoding="iso-8859-1"?>
<!-- Uploaded to: SVG Repo, www.svgrepo.com, Generator: SVG Repo Mixer Tools -->
<svg version="1.1" id="Layer_1" xmlns="http://www.w3.org/2000/svg" xmlns:xlink="http://www.w3.org/1999/xlink" 
	 viewBox="0 0 512 512" xml:space="preserve">
<circle style="fill:#34495E;" cx="256" cy="256" r="256"/>
<path style="fill:#203549;" d="M352.625,154.629h-58.588l-18.104-18.104c-7.867-7.859-18.322-12.178-29.44-12.178h-3.73
	c-11.082,0-21.54,4.321-29.404,12.178c-5.12,5.12-8.737,11.338-10.642,18.104h-14.92v4.972v10.022l-28.419,7.716v210.324
	l122.995,122.99c111.442-11.405,201.697-94.3,224.2-202.079L352.625,154.629z"/>
<rect x="187.802" y="154.624" style="fill:#F28124;" width="164.838" height="204.621"/>
<g>
	<polygon style="fill:#CEE2F2;" points="316.393,165.978 316.393,373.44 352.625,359.232 352.625,154.611 	"/>
	<polygon style="fill:#CEE2F2;" points="201.29,215.626 187.799,215.626 187.799,154.611 201.29,165.978 	"/>
</g>
<g>
	<polygon style="fill:#FF9D4D;" points="329.889,229.834 316.393,229.834 316.393,165.978 329.889,177.352 	"/>
	<polygon style="fill:#FF9D4D;" points="159.37,200.271 201.29,200.271 201.29,165.978 159.37,177.352 	"/>
</g>
<rect x="159.36" y="177.357" style="fill:#FFFFFF;" width="170.522" height="210.304"/>
<path style="fill:#FF8E31;" d="M287.201,251.136c-14.333-18.627-42.57-7.634-42.57,11.284c0-18.921-28.229-29.911-42.58-11.284
	c-14.833,19.254-0.212,52.987,42.58,72.358C287.427,304.123,302.042,270.39,287.201,251.136z"/>
<g>
	<path style="fill:#34495E;" d="M209.249,197.174c0-3.259-2.637-5.903-5.885-5.903c-3.261,0-5.906,2.644-5.906,5.903
		c0,3.269,2.644,5.893,5.906,5.893C206.612,203.067,209.249,200.445,209.249,197.174z"/>
	<path style="fill:#34495E;" d="M291.804,197.174c0-3.259-2.642-5.903-5.893-5.903c-3.254,0-5.901,2.644-5.901,5.903
		c0,3.269,2.647,5.893,5.901,5.893C289.162,203.067,291.804,200.445,291.804,197.174z"/>
</g>
<path style="fill:#CEE2F2;" d="M246.5,124.344h-3.722c-11.11,0-21.573,4.334-29.427,12.193c-7.862,7.862-12.198,18.317-12.198,29.44
	v31.196c0,0.527,0.197,1.055,0.599,1.457c0.404,0.389,0.937,0.602,1.472,0.602h0.294c0.52,0,1.047-0.212,1.454-0.602
	c0.394-0.404,0.599-0.929,0.599-1.457v-31.196c0-9.938,3.866-19.284,10.9-26.312c7.035-7.027,16.374-10.903,26.307-10.903h3.722
	c9.93,0,19.264,3.878,26.307,10.903c7.032,7.027,10.9,16.374,10.9,26.312v31.196c0,0.527,0.197,1.055,0.596,1.457
	c0.407,0.389,0.927,0.602,1.462,0.602h0.294c0.525,0,1.052-0.212,1.459-0.602c0.399-0.404,0.602-0.929,0.602-1.457v-31.196
	c0-11.126-4.332-21.578-12.191-29.44C268.065,128.678,257.61,124.344,246.5,124.344z"/>
</svg>